# xmcd
#
# Track frame offsets:
#	150
#	10675
#	26629
#	43854
#	55997
#	67709
#	78750
#	91990
#	107539
#	134435
#	151066
#	164766
#	177405
#	194110
#	217062
#	229763
#
# Disc length: 3352 seconds
# Revision: 2
# Processed by: cddbd v1.5.2PL0 Copyright (c) Steve Scherf et al.
# Submitted via: dBpowerAMP V12.0
#
DISCID=d50d1610
DTITLE=Various Artist - Tracks of Tragedy
DYEAR=2009
DGENRE=Country
TTITLE0=Jean Shepherd and Ferlin Husky - A Dear John Letter
TTITLE1=Glenn Jones - Old Gilbert
TTITLE2=The Louvin Brothers - Knoxville Girl
TTITLE3=Stonewall Jackson - Life to Go
TTITLE4=Stan Coster - Unto Death us do Part
TTITLE5=Gordon Parsons - A Mangled Mess of Steel
TTITLE6=Ferlin Husky - Drunken Driver
TTITLE7=C W McCall - Roses For Mama
TTITLE8=Pat Drummond - Somewhere in The Car (spider song)
TTITLE9=Shirley Thoms - Faithful Old Dog
TTITLE10=Buddy Williams - The Lowest Scum on Earth
TTITLE11=Nev Nicholls - Heaven
TTITLE12=Owen Blundell - The Blind Girl
TTITLE13=Red Sovine - Teddy Bear
TTITLE14=Bob Howe - i See Your Face
TTITLE15=The Wildes - Ballad of a Young Married Man
EXTD=
EXTT0=
EXTT1=
EXTT2=
EXTT3=
EXTT4=
EXTT5=
EXTT6=
EXTT7=
EXTT8=
EXTT9=
EXTT10=
EXTT11=
EXTT12=
EXTT13=
EXTT14=
EXTT15=
PLAYORDER=
